<svg width="210" height="116" viewBox="0 0 210 116" fill="none" xmlns="http://www.w3.org/2000/svg">
<path d="M133.238 39.2398C133.334 49.572 126.27 59.175 114.376 66.2945C102.506 73.3998 85.9936 77.9117 67.6554 78.0818C49.3172 78.2518 32.7235 74.0468 20.724 67.1628C8.70063 60.2651 1.45951 50.7948 1.36371 40.4625C1.2679 30.1302 8.33218 20.5273 20.2256 13.4078C32.0954 6.30248 48.6083 1.79056 66.9464 1.62052C85.2846 1.45049 101.878 5.65545 113.878 12.5395C125.901 19.4372 133.142 28.9075 133.238 39.2398Z" stroke="black" stroke-width="2"/>
<path d="M181.889 61.9184C181.989 72.6264 174.672 82.4349 162.663 89.6235C150.66 96.8086 134.011 101.346 115.564 101.517C97.116 101.688 80.3864 97.4602 68.2522 90.4989C56.112 83.5342 48.6144 73.863 48.5151 63.155C48.4158 52.447 55.7328 42.6385 67.7418 35.4498C79.7448 28.2648 96.3932 23.7271 114.841 23.5561C133.289 23.3851 150.018 27.6132 162.152 34.5745C174.293 41.5392 181.79 51.2104 181.889 61.9184Z" stroke="black" stroke-width="0.5"/>
<path d="M208.756 75.268C208.855 85.976 201.538 95.7845 189.529 102.973C177.526 110.158 160.878 114.696 142.43 114.867C123.982 115.038 107.253 110.81 95.1184 103.849C82.9782 96.8838 75.4806 87.2126 75.3813 76.5046C75.282 65.7966 82.599 55.9881 94.608 48.7995C106.611 41.6144 123.259 37.0768 141.707 36.9057C160.155 36.7347 176.884 40.9628 189.019 47.9241C201.159 54.8888 208.656 64.56 208.756 75.268Z" stroke="black" stroke-width="0.5"/>
</svg>
