<svg width="333" height="115" viewBox="0 0 333 115" fill="none" xmlns="http://www.w3.org/2000/svg">
<path d="M270.396 11.191L280.527 1.19594L288.065 13.0498L300.794 7.12433L303.432 20.9206L317.455 20.0907L315.172 34.4385L328.456 38.9888L320.793 50.7537L331.469 59.8763L320.02 68.0207L326.277 81.141L312.593 84.2903L313.955 98.2649L300.066 96.1897L296.212 109.693L284.061 102.655L275.492 113.782L266.79 103.6L257.139 113.86L247.486 103.6L237.835 113.86L228.178 103.6L217.812 113.86L208.164 103.6L198.514 113.86L188.86 103.6L179.209 113.86L169.552 103.6L159.187 113.86L149.539 103.6L139.888 113.86L130.235 103.6L120.585 113.86L110.927 103.6L100.562 113.86L90.9146 103.6L81.2643 113.86L71.6107 103.6L61.9602 113.86C58.8016 110.424 52.7627 103.405 52.7627 103.405L41.425 111.694L35.5961 98.3883L21.9591 101.727L22.0389 87.6826L8.12313 85.7973L13.3453 72.7612L1 65.0974L10.789 55.0419L2.08176 44.0334L14.892 38.2744L10.8519 24.8279L24.8832 24.1818L26.7114 9.76222L39.9292 14.4931L46.3405 2.00038L56.8922 11.2601L66.5421 1L76.1993 11.2599L86.5654 1.00062L96.2131 11.2605L105.863 1.00062L115.517 11.2605L125.167 1.00062L134.825 11.2605L144.482 1.00062L154.838 11.2605L164.489 1.00062L174.142 11.2605L183.793 1.00062L193.45 11.2605L203.107 1.00062L213.462 11.2605L223.113 1.00062L232.766 11.2605L242.417 1.00062L252.074 11.2605L261.732 1.00062L270.396 11.191V11.191Z" stroke="black" stroke-miterlimit="10"/>
</svg>
