<?xml version="1.0" encoding="utf-8"?>
<!-- Generator: Adobe Illustrator 26.0.3, SVG Export Plug-In . SVG Version: 6.00 Build 0)  -->
<svg version="1.1" id="Layer_1" xmlns="http://www.w3.org/2000/svg" xmlns:xlink="http://www.w3.org/1999/xlink" x="0px" y="0px"
	 viewBox="0 0 103.9 17" style="enable-background:new 0 0 103.9 17;" xml:space="preserve">
<path d="M95.4,0.1l-0.8,0.8l7,7H79.9C78,7.8,77.1,6.8,76,5.6c-1.1-1.3-2.4-2.7-4.9-2.7c-2.5,0-3.8,1.4-4.9,2.7c-1.1,1.2-2,2.3-4,2.3
	s-2.9-1.1-4-2.3c-1.1-1.3-2.4-2.7-4.9-2.7c-2.5,0-3.8,1.4-4.9,2.7c-1.1,1.2-2,2.3-4,2.3c-1.9,0-2.9-1.1-4-2.3
	c-1.1-1.3-2.4-2.7-4.9-2.7c-2.5,0-3.8,1.4-4.9,2.7c-1.1,1.2-2,2.3-4,2.3c-1.9,0-2.9-1.1-4-2.3c-1.1-1.3-2.4-2.7-4.9-2.7
	c-2.5,0-3.8,1.4-4.9,2.7c-1.1,1.2-2,2.3-4,2.3c-1.9,0-2.9-1.1-4-2.3C3.8,4.3,2.5,2.9,0,2.9v1.2c2,0,2.9,1.1,4,2.3
	c1.1,1.3,2.4,2.7,4.9,2.7c2.5,0,3.8-1.4,4.9-2.7c1.1-1.2,2-2.3,4-2.3c2,0,2.9,1.1,4,2.3c1.1,1.3,2.4,2.7,4.9,2.7
	c2.5,0,3.8-1.4,4.9-2.7c1.1-1.2,2-2.3,4-2.3c2,0,2.9,1.1,4,2.3c1.1,1.3,2.4,2.7,4.9,2.7c2.5,0,3.8-1.4,4.9-2.7c1.1-1.2,2-2.3,4-2.3
	c2,0,2.9,1.1,4,2.3c1.1,1.3,2.4,2.7,4.9,2.7s3.8-1.4,4.9-2.7c1.1-1.2,2-2.3,4-2.3c2,0,2.9,1.1,4,2.3c1,1.1,2,2.3,3.9,2.6v0.1h0.9
	c0,0,0.1,0,0.1,0v0h21.6l-7,7l0.8,0.8l8.4-8.4L95.4,0.1z"/>
</svg>
