<svg width="12" height="10" viewBox="0 0 12 10" fill="none" xmlns="http://www.w3.org/2000/svg">
<path d="M10.8 0H1.2C0.54 0 0.00599999 0.5625 0.00599999 1.25L0 8.75C0 9.4375 0.54 10 1.2 10H10.8C11.46 10 12 9.4375 12 8.75V1.25C12 0.5625 11.46 0 10.8 0ZM10.56 2.65625L6.318 5.41875C6.126 5.54375 5.874 5.54375 5.682 5.41875L1.44 2.65625C1.29 2.55625 1.2 2.3875 1.2 2.20625C1.2 1.7875 1.638 1.5375 1.98 1.75625L6 4.375L10.02 1.75625C10.362 1.5375 10.8 1.7875 10.8 2.20625C10.8 2.3875 10.71 2.55625 10.56 2.65625Z" fill="black"/>
</svg>
