<svg width="28" height="41" viewBox="0 0 28 41" fill="none" xmlns="http://www.w3.org/2000/svg">
<path d="M18.1176 38.5654L19.7647 38.5654L19.7647 40.4019L18.1176 40.4019L16.4706 40.4019L16.4706 38.5654L18.1176 38.5654ZM16.4706 34.8925L16.4706 33.0561L16.4706 31.2196L16.4706 29.3832L16.4706 27.5467L16.4706 25.7103L16.4706 23.8738L16.4706 22.0374L14.8235 22.0374L14.8235 23.8738L14.8235 25.7103L13.1765 25.7103L11.5294 25.7103L11.5294 27.5467L13.1765 27.5467L14.8235 27.5467L14.8235 29.3832L14.8235 31.2196L14.8235 33.0561L14.8235 34.8925L14.8235 36.729L14.8235 38.5654L16.4706 38.5654L16.4706 36.729L16.4706 34.8925ZM6.58824 25.7103L6.58824 27.5467L8.2353 27.5467L9.88235 27.5467L9.88235 25.7103L8.2353 25.7103L6.58824 25.7103ZM11.5294 22.0374L9.88235 22.0374L9.88235 23.8738L9.88235 25.7103L11.5294 25.7103L11.5294 23.8738L11.5294 22.0374ZM1.64706 22.0374L1.64706 23.8738L3.29412 23.8738L3.29412 22.0374L1.64706 22.0374ZM1.64706 22.0374L1.64706 20.2009L1.64706 18.3645L1.64706 16.528L1.64706 14.6916L1.64706 12.8551L1.64706 11.0187L1.64706 9.18225L1.77018e-06 9.18225L1.91324e-06 11.0187L2.0563e-06 12.8551L2.19935e-06 14.6916L2.34241e-06 16.528L2.48546e-06 18.3645L2.62852e-06 20.2009L2.77157e-06 22.0374L1.64706 22.0374ZM3.29412 7.3458L3.29412 5.50935L3.29412 3.6729L1.64706 3.6729L1.64706 5.50935L1.64706 7.3458L1.64706 9.18225L3.29412 9.18225L3.29412 7.3458ZM4.94118 1.83645L6.58824 1.83645L8.23529 1.83645L9.88235 1.83645L11.5294 1.83645L13.1765 1.83645L14.8235 1.83645L16.4706 1.83645L18.1176 1.83645L18.1176 3.6729L19.7647 3.6729L19.7647 1.83645L19.7647 3.72783e-06L18.1176 3.88943e-06L16.4706 4.05103e-06L14.8235 4.21262e-06L13.1765 4.37422e-06L11.5294 4.53582e-06L9.88235 4.69741e-06L8.23529 4.85901e-06L6.58824 5.02061e-06L4.94118 5.1822e-06L3.29412 5.3438e-06L3.29412 1.83645L3.29412 3.6729L4.94118 3.6729L4.94118 1.83645ZM6.58824 22.0374L4.94118 22.0374L4.94118 23.8738L3.29412 23.8738L3.29412 25.7103L4.94118 25.7103L6.58824 25.7103L6.58824 23.8738L6.58824 22.0374ZM21.4118 20.2009L21.4118 18.3645L21.4118 16.528L21.4118 14.6916L19.7647 14.6916L19.7647 16.528L19.7647 18.3645L19.7647 20.2009L19.7647 22.0374L19.7647 23.8738L19.7647 25.7103L19.7647 27.5467L19.7647 29.3832L19.7647 31.2196L19.7647 33.0561L19.7647 34.8925L19.7647 36.729L19.7647 38.5654L21.4118 38.5654L21.4118 36.729L21.4118 34.8925L21.4118 33.0561L21.4118 31.2196L21.4118 29.3832L21.4118 27.5467L21.4118 25.7103L21.4118 23.8738L21.4118 22.0374L23.0588 22.0374L23.0588 20.2009L21.4118 20.2009ZM26.3529 22.0374L24.7059 22.0374L23.0588 22.0374L23.0588 23.8738L24.7059 23.8738L26.3529 23.8738L28 23.8738L28 22.0374L28 20.2009L28 18.3645L26.3529 18.3645L26.3529 20.2009L26.3529 22.0374ZM26.3529 18.3645L26.3529 16.528L24.7059 16.528L24.7059 18.3645L26.3529 18.3645ZM23.0588 16.528L24.7059 16.528L24.7059 14.6916L24.7059 12.8551L23.0588 12.8551L23.0588 14.6916L23.0588 16.528ZM21.4118 11.0187L21.4118 12.8551L23.0588 12.8551L23.0588 11.0187L23.0588 9.18224L23.0588 7.34579L21.4118 7.34579L21.4118 9.18224L21.4118 11.0187ZM19.7647 7.34579L21.4118 7.34579L21.4118 5.50935L21.4118 3.6729L19.7647 3.6729L19.7647 5.50935L19.7647 7.34579Z" fill="black"/>
</svg>
