<?xml version="1.0" encoding="utf-8"?>
<!-- Generator: Adobe Illustrator 26.0.3, SVG Export Plug-In . SVG Version: 6.00 Build 0)  -->
<svg version="1.1" id="Layer_1" xmlns="http://www.w3.org/2000/svg" xmlns:xlink="http://www.w3.org/1999/xlink" x="0px" y="0px"
	 viewBox="0 0 110.8 50" style="enable-background:new 0 0 110.8 50;" xml:space="preserve">
<path d="M108.2,25c0-0.1,0.1-0.1,0.2-0.2c2.1-3.3,2.7-6.5,1.9-9.5c-0.8-3-3.1-5.7-6.7-8c-3.5-2.2-8.1-3.9-13.7-5
	C80,0.2,68,0,55.5,1.6C43.1,0,31.1,0.2,21.2,2.3c-5.6,1.2-10.2,2.9-13.7,5c-3.6,2.3-5.9,4.9-6.7,8c-0.8,3-0.2,6.3,1.9,9.5
	c0,0.1,0.1,0.1,0.2,0.2c0,0.1-0.1,0.1-0.2,0.2c-2.1,3.3-2.7,6.5-1.9,9.5c0.8,3,3.1,5.7,6.7,8c3.5,2.2,8.1,3.9,13.7,5.1
	c5.5,1.2,11.7,1.7,18.3,1.7c5.2,0,10.6-0.4,16-1.1c5.5,0.7,10.9,1.1,16,1.1c6.6,0,12.7-0.6,18.3-1.7c5.6-1.2,10.2-2.9,13.7-5
	c3.6-2.3,5.9-4.9,6.7-8c0.8-3,0.2-6.3-1.9-9.5C108.3,25.2,108.2,25.1,108.2,25z M71.6,1.5c6.5,0,12.6,0.6,18.1,1.7
	c5.5,1.1,10,2.8,13.4,4.9c3.4,2.1,5.5,4.6,6.3,7.4c0.8,2.7,0.2,5.6-1.7,8.6c-2-2.8-5.1-5.5-9-8.1C89.4,9.9,76.3,5.1,61.7,2.6
	c-0.8-0.1-1.5-0.3-2.3-0.4C63.6,1.7,67.6,1.5,71.6,1.5z M107,25c-2,2.8-5,5.5-8.9,8.2c-9,6-22,10.7-36.5,13.3c-2,0.4-4,0.7-6,0.9
	c-2-0.3-4-0.6-6-0.9c-14.5-2.6-27.4-7.3-36.5-13.3c-4-2.6-7-5.4-8.9-8.2c2-2.8,5-5.5,8.9-8.2c9-6,22-10.7,36.5-13.3
	c2-0.4,4-0.7,6-0.9c2,0.3,4,0.6,6,0.9C76,6.1,89,10.8,98,16.8C102,19.5,105,22.2,107,25z M1.8,15.5c0.8-2.8,2.9-5.3,6.3-7.4
	C11.5,6,16,4.4,21.4,3.2C26.9,2.1,33,1.5,39.5,1.5c3.9,0,8,0.2,12.2,0.6c-0.8,0.1-1.5,0.2-2.3,0.4C34.8,5.1,21.7,9.9,12.5,16
	c-3.9,2.6-7,5.3-9,8.1C1.7,21.1,1.1,18.2,1.8,15.5z M21.4,46.8c-5.5-1.1-10-2.8-13.4-4.9c-3.4-2.1-5.5-4.6-6.3-7.4
	c-0.8-2.7-0.2-5.6,1.7-8.6c2,2.8,5.1,5.5,9,8.1c9.2,6.1,22.2,10.9,36.9,13.5c0.8,0.1,1.5,0.3,2.3,0.4C40.7,49,30.2,48.7,21.4,46.8z
	 M109.3,34.5c-0.8,2.8-2.9,5.3-6.3,7.4c-3.4,2.1-7.9,3.8-13.4,4.9c-8.8,1.8-19.3,2.2-30.2,1.1c0.8-0.1,1.5-0.2,2.3-0.4
	c14.6-2.6,27.7-7.4,36.9-13.5c3.9-2.6,7-5.3,9-8.1C109.4,28.9,110,31.8,109.3,34.5z"/>
</svg>
